<?xml version="1.0" encoding="UTF-8"?>
<svg version="1.1" xmlns="http://www.w3.org/2000/svg" width="324" height="312">
<path d="M0 0 C1.2384668 0.00563965 2.47693359 0.0112793 3.75292969 0.01708984 C12.62203862 0.13480075 20.72339732 0.69886771 29.25 3.3125 C29.87165039 3.50054199 30.49330078 3.68858398 31.13378906 3.88232422 C48.44764616 9.28270099 62.52218947 18.5482201 75.25 31.3125 C75.92289063 31.92609375 76.59578125 32.5396875 77.2890625 33.171875 C95.90571062 50.34339518 105.69789269 77.5870696 107.25 102.3125 C107.34861328 103.77623047 107.34861328 103.77623047 107.44921875 105.26953125 C108.04515328 121.93514862 102.4131497 135.71461908 92.546875 148.94921875 C92.11890625 149.39910156 91.6909375 149.84898437 91.25 150.3125 C90.59 150.3125 89.93 150.3125 89.25 150.3125 C88.92 151.3025 88.59 152.2925 88.25 153.3125 C87.59 153.3125 86.93 153.3125 86.25 153.3125 C86.25 153.9725 86.25 154.6325 86.25 155.3125 C84.17611355 156.88078202 82.12733702 158.29748605 79.9375 159.6875 C79.30465088 160.09162109 78.67180176 160.49574219 78.01977539 160.91210938 C64.62226292 169.22722588 49.1396469 171.37815172 33.625 168.8125 C17.52663437 164.24918376 3.511643 153.91597862 -4.75 139.3125 C-6.63702346 135.38245913 -8.25637539 131.40678863 -9.75 127.3125 C-10.1625 126.19875 -10.575 125.085 -11 123.9375 C-12.71554103 115.64571834 -14.31633707 107.82206854 -9.75 100.3125 C-6.41196406 96.78371915 -3.47689906 95.57069033 1.26171875 95.22265625 C4.63096264 95.37490106 6.53893966 96.34081975 9.25 98.3125 C12.66917967 102.6814518 13.48443067 106.14879945 14.1875 111.625 C15.48731037 121.39598827 19.72497408 129.80045834 27.25 136.3125 C35.97224802 141.72352424 43.90595682 143.51443772 54.06640625 141.8515625 C63.54308171 139.6109021 70.78803395 134.40303721 76.25 126.3125 C83.20119659 112.57302548 80.76711131 95.0883304 76.1484375 80.9375 C74.95973072 77.99257483 73.6636405 75.1558451 72.25 72.3125 C71.79625 71.37921875 71.3425 70.4459375 70.875 69.484375 C60.715735 49.71797897 43.0808162 36.10370526 22.05078125 29.2734375 C0.55114888 23.82856019 -21.81829752 27.09266575 -40.88623047 38.1796875 C-59.19840014 49.30995568 -72.55263206 67.39835053 -77.71850586 88.33642578 C-84.31477365 121.79713314 -74.99736683 156.12705713 -56.4375 184 C-51.72951994 190.62212421 -46.32809454 196.43218672 -40.75 202.3125 C-32.75 210.99775896 -32.75 210.99775896 -32.75 218.25 C-33.40432263 222.22106148 -34.93087159 224.54643348 -37.94921875 227.17578125 C-41.16868925 229.20802836 -43.982371 229.69212802 -47.75 229.3125 C-67.56285788 223.03842834 -81.86828485 195.31641329 -90.86474609 178.19042969 C-106.21867797 147.51283489 -111.6810675 107.21366088 -101.53125 74.1484375 C-92.03985018 45.84464019 -72.27742542 23.49340796 -45.75 10 C-31.07065164 2.77855229 -16.28832988 -0.07756348 0 0 Z " fill="#F26565" transform="translate(140.75,54.6875)"/>
<path d="M0 0 C4.19826691 3.40204387 7.56804055 7.28525277 11 11.4375 C11.75023437 12.27796875 12.50046875 13.1184375 13.2734375 13.984375 C40.54314521 45.12517687 52.00004465 85.58473603 50 126.4375 C48.02492491 151.18318719 38.12438988 172.77989831 22 191.4375 C21.34386719 192.19675781 20.68773437 192.95601562 20.01171875 193.73828125 C1.56451384 213.44953446 -25.1654542 224.46632118 -51.765625 225.59765625 C-76.17740131 226.26954 -96.82942942 219.48661013 -117.1875 206.1875 C-118.19683594 205.53261597 -118.19683594 205.53261597 -119.2265625 204.86450195 C-120.85532468 203.77647358 -122.4332598 202.61308374 -124 201.4375 C-124 200.7775 -124 200.1175 -124 199.4375 C-124.86238281 199.05851562 -124.86238281 199.05851562 -125.7421875 198.671875 C-141.87817375 189.85012473 -152.8888085 166.54979036 -157.875 149.6875 C-158.63053427 146.94807699 -159.32873887 144.19864471 -160 141.4375 C-160.36931641 139.98730469 -160.36931641 139.98730469 -160.74609375 138.5078125 C-164.59988187 120.16909661 -163.3047147 100.3425402 -153.7578125 84.03125 C-144.56944649 70.47330549 -131.64540516 61.19080429 -116 56.4375 C-99.56922344 53.65262262 -84.20944624 56.25302077 -70.125 65.4375 C-68.74049655 66.42430048 -67.36440062 67.42308591 -66 68.4375 C-64.989375 69.159375 -63.97875 69.88125 -62.9375 70.625 C-50.1839009 81.71815822 -44.55934194 97.92320316 -42.68359375 114.1796875 C-42.40864884 119.44798683 -43.59468847 122.46463655 -47 126.4375 C-50.08106179 129.41585973 -52.72064511 130.26968216 -57 130.4375 C-62.25070495 128.80797088 -65.03288417 127.04017763 -68 122.4375 C-68.88768759 119.41688629 -69.36862659 116.35403865 -69.875 113.25 C-72.1034629 101.53112906 -75.87188393 94.54403763 -85.33984375 87.03125 C-93.15364634 82.34985285 -102.21575825 82.72240092 -111 83.4375 C-114.3748305 84.31070789 -117.06178495 85.58435192 -120 87.4375 C-120.62132812 87.788125 -121.24265625 88.13875 -121.8828125 88.5 C-128.95455356 92.90835806 -132.71948634 99.53059243 -134.875 107.4375 C-138.90133808 126.5386396 -132.44816781 147.45468233 -122.03125 163.46875 C-121.3609375 164.4484375 -120.690625 165.428125 -120 166.4375 C-119.4328125 167.2728125 -118.865625 168.108125 -118.28125 168.96875 C-107.99378126 183.13828242 -89.2704459 193.85375365 -72.16796875 197.18359375 C-55.68871397 199.56593866 -40.67111254 198.16345458 -25.046875 192.4609375 C-22 191.4375 -22 191.4375 -19 191.4375 C-19 190.7775 -19 190.1175 -19 189.4375 C-17.234375 188.31640625 -17.234375 188.31640625 -14.75 187 C2.76856774 176.79115996 14.92932879 160.05306184 21.12890625 140.9609375 C26.37525519 120.9386396 24.80648834 99.16434686 19 79.4375 C18.67386719 78.29023437 18.34773437 77.14296875 18.01171875 75.9609375 C11.61386803 55.07448327 -0.5675509 35.4978247 -16.7578125 20.796875 C-19.98686848 17.39905303 -21.76080555 14.07769052 -22.4375 9.4375 C-21.73253403 4.60344763 -18.82602606 0.4664373 -15 -2.5625 C-9.70293698 -4.83266987 -4.48249472 -3.19681794 0 0 Z " fill="#FAF9F9" transform="translate(244,46.5625)"/>
<path d="M0 0 C1 3 1 3 0.109375 5.12890625 C-0.33921875 5.93199219 -0.7878125 6.73507813 -1.25 7.5625 C-6.92749711 18.41282782 -8.19182912 28.91476517 -8 41 C-8.66 41 -9.32 41 -10 41 C-14.62883126 56.35644472 -11.45142032 77.79492022 -7.51269531 93.00488281 C-7.04793501 94.81346432 -6.64160123 96.63681089 -6.2421875 98.4609375 C-3.77940027 109.47271029 0.90056296 119.28311426 6.49682617 129.01293945 C7.40507301 130.63612019 8.21103111 132.31561403 9 134 C8.67 134.99 8.34 135.98 8 137 C-11.603267 104.70933938 -19.86566378 64.4466412 -11.55664062 27.18017578 C-9.10917483 17.59426808 -5.26326136 8.38395615 0 0 Z " fill="#B15051" transform="translate(49,108)"/>
<path d="M0 0 C2.5 1.4375 2.5 1.4375 4 3 C4 3.66 4 4.32 4 5 C2.02 4.34 0.04 3.68 -2 3 C-2 2.34 -2 1.68 -2 1 C-5.3 1.33 -8.6 1.66 -12 2 C-12 2.66 -12 3.32 -12 4 C-12.66 4 -13.32 4 -14 4 C-17.92551683 14.0335604 -15.46908862 26.04217072 -12 36 C-10.77273657 38.50947896 -9.46126819 40.88539105 -7.98828125 43.2578125 C-7 45 -7 45 -7 47 C-6.34 47 -5.68 47 -5 47 C-3.66796875 48.64453125 -3.66796875 48.64453125 -2.1875 50.8125 C0.24646768 54.18215355 2.28861564 56.04663981 6 58 C6.639375 58.66 7.27875 59.32 7.9375 60 C12.60306477 64.52418402 18.94121676 66.08427044 25 68 C25.99 68.33 26.98 68.66 28 69 C28 69.66 28 70.32 28 71 C43.47015731 71.64857069 43.47015731 71.64857069 58.375 68.375 C62.00108948 66.99958675 62.59097982 66.87367175 66 68 C64.27255984 68.65043719 62.5429631 69.29514844 60.8125 69.9375 C59.84957031 70.29714844 58.88664062 70.65679687 57.89453125 71.02734375 C43.88940272 75.73352054 28.19862975 73.71921544 15.125 67.5 C-0.52936153 59.62645076 -10.04660561 47.31930461 -16 31 C-16.4125 29.88625 -16.825 28.7725 -17.25 27.625 C-20.59334018 11.46552245 -20.59334018 11.46552245 -16 4 C-10.8295731 -0.78264489 -6.82850673 -1.58003677 0 0 Z " fill="#AB4D4F" transform="translate(147,151)"/>
<path d="M0 0 C1.2384668 0.00563965 2.47693359 0.0112793 3.75292969 0.01708984 C18.50371758 0.21286246 31.81278702 3.175147 45.25 9.3125 C45.58 9.9725 45.91 10.6325 46.25 11.3125 C41.795 10.3225 41.795 10.3225 37.25 9.3125 C37.25 8.6525 37.25 7.9925 37.25 7.3125 C36.321875 7.18875 35.39375 7.065 34.4375 6.9375 C31.07278671 6.45386565 27.72355922 5.89751556 24.375 5.3125 C23.42882812 5.1475 22.48265625 4.9825 21.5078125 4.8125 C19.25 4.3125 19.25 4.3125 18.25 3.3125 C10.46589907 1.95833159 2.49353197 2.19298165 -5.375 2.25 C-6.56996094 2.25451172 -7.76492187 2.25902344 -8.99609375 2.26367188 C-11.91411647 2.27534397 -14.83203037 2.29171674 -17.75 2.3125 C-17.75 2.9725 -17.75 3.6325 -17.75 4.3125 C-20.5625 4.78125 -20.5625 4.78125 -23.375 5.25 C-24.41914062 5.42402344 -25.46328125 5.59804688 -26.5390625 5.77734375 C-29.609375 6.2890625 -32.6796875 6.80078125 -35.75 7.3125 C-35.75 7.9725 -35.75 8.6325 -35.75 9.3125 C-36.55824219 9.55484375 -37.36648437 9.7971875 -38.19921875 10.046875 C-43.87877795 11.82816015 -48.22688107 13.33763791 -52.75 17.3125 C-55.5625 18.0625 -55.5625 18.0625 -57.75 18.3125 C-58.245 19.7975 -58.245 19.7975 -58.75 21.3125 C-60.38183107 22.36839069 -62.05792999 23.3561126 -63.75 24.3125 C-72.00265129 29.4409333 -77.43253192 36.42499013 -82.48828125 44.625 C-82.90464844 45.181875 -83.32101563 45.73875 -83.75 46.3125 C-84.41 46.3125 -85.07 46.3125 -85.75 46.3125 C-85.75 47.3025 -85.75 48.2925 -85.75 49.3125 C-86.41 49.3125 -87.07 49.3125 -87.75 49.3125 C-88.41 50.6325 -89.07 51.9525 -89.75 53.3125 C-90.08 52.6525 -90.41 51.9925 -90.75 51.3125 C-72.88270967 25.4254447 -50.97982907 7.6442261 -19.63671875 1.20703125 C-13.09363086 0.06309944 -6.62905198 -0.03156691 0 0 Z " fill="#B05759" transform="translate(140.75,54.6875)"/>
<path d="M0 0 C1.05896484 -0.00773437 2.11792969 -0.01546875 3.20898438 -0.0234375 C8.92321151 -0.00917867 13.66609811 0.38043437 19.0625 2.25 C19.96613281 2.47300781 20.86976563 2.69601563 21.80078125 2.92578125 C31.10576566 5.22731761 38.78599981 8.95368139 46.30078125 14.8984375 C48.20210354 16.41587173 48.20210354 16.41587173 51.0625 18 C51.7225 18.4125 52.3825 18.825 53.0625 19.25 C53.0625 19.91 53.0625 20.57 53.0625 21.25 C49.88357754 19.75230905 47.04538969 17.94985417 44.125 16 C25.49063719 4.13727567 5.10173489 0.15087793 -16.65209961 4.27954102 C-36.39677782 8.70733049 -53.01794051 20.04925506 -64.9375 36.25 C-65.4325 34.765 -65.4325 34.765 -65.9375 33.25 C-64.37971619 31.4956027 -62.81655295 29.74653989 -61.25 28 C-60.37988281 27.02546875 -59.50976562 26.0509375 -58.61328125 25.046875 C-56.17898513 22.50241365 -53.79910683 20.297487 -50.9375 18.25 C-50.2775 18.25 -49.6175 18.25 -48.9375 18.25 C-48.9375 17.59 -48.9375 16.93 -48.9375 16.25 C-43.70286922 11.98870193 -36.86683699 7.25 -29.9375 7.25 C-29.9375 6.59 -29.9375 5.93 -29.9375 5.25 C-28.74253906 4.95996094 -28.74253906 4.95996094 -27.5234375 4.6640625 C-26.46382812 4.40367188 -25.40421875 4.14328125 -24.3125 3.875 C-23.26835938 3.61976562 -22.22421875 3.36453125 -21.1484375 3.1015625 C-17.98816285 2.33733024 -17.98816285 2.33733024 -15.28515625 1.1640625 C-10.21083036 -0.22145939 -5.23445874 -0.03809188 0 0 Z " fill="#B15154" transform="translate(140.9375,78.75)"/>
<path d="M0 0 C0.99 0.495 0.99 0.495 2 1 C-21.7538165 20.85670598 -47.65869694 31.00678777 -79 29 C-87.16100148 28.10505989 -95.26400525 26.80201385 -103 24 C-98.94454412 22.41353928 -95.22399426 23.60109808 -91.125 24.4375 C-70.10028039 28.28021705 -46.60735091 27.18242245 -27 18 C-26.67 17.34 -26.34 16.68 -26 16 C-23.97259829 15.12611995 -21.9092763 14.47019078 -19.8125 13.78125 C-17.80487204 13.14670555 -17.80487204 13.14670555 -17 11 C-15.68 11 -14.36 11 -13 11 C-13 10.34 -13 9.68 -13 9 C-10.36107824 7.21694476 -8.02821137 6.00940379 -5 5 C-4.67 4.01 -4.34 3.02 -4 2 C-2.0625 0.75 -2.0625 0.75 0 0 Z " fill="#C8C0BF" transform="translate(258,243)"/>
<path d="M0 0 C1.19486017 3.58458052 0.75546886 4.11565023 -0.75 7.4375 C-5.21726604 18.03664073 -6.52823044 28.04362185 -6.4375 39.5 C-6.43210205 40.8099292 -6.4267041 42.1198584 -6.42114258 43.46948242 C-6.21229638 56.9256161 -4.19842279 69.44278288 0.51831055 82.04370117 C1 84 1 84 0 87 C-1.90276522 84.14585217 -2.65607642 82.1305318 -3.5625 78.875 C-4.27737882 75.65831713 -4.27737882 75.65831713 -6 73 C-10.5446779 50.4186317 -12.72990394 23.08981119 -2 2 C-1.34 2 -0.68 2 0 2 C0 1.34 0 0.68 0 0 Z " fill="#AF5153" transform="translate(68,125)"/>
<path d="M0 0 C0.99 0.33 1.98 0.66 3 1 C3.89462829 3.31790058 4.39525729 5.64906617 4.9609375 8.06640625 C9.95352409 22.16201726 22.5993145 35.77756566 34 45 C35.11568359 45.90685547 35.11568359 45.90685547 36.25390625 46.83203125 C39.99308389 49.74816409 43.71123731 51.94885263 48 54 C50.04276289 55.27906943 52.01585385 56.62999432 54 58 C53.01 58.495 53.01 58.495 52 59 C44.60859754 55.81759061 37.15763608 51.18256573 31 46 C31 45.34 31 44.68 31 44 C30.13761719 43.62101562 30.13761719 43.62101562 29.2578125 43.234375 C15.46835781 35.69550358 5.89911751 16.92389468 0 3 C0 2.01 0 1.02 0 0 Z " fill="#B3AEAD" transform="translate(89,202)"/>
<path d="M0 0 C4.49992245 1.25579231 7.63305557 2.7265818 11 6 C12.3125 8.75 12.3125 8.75 13 11 C13.66 11 14.32 11 15 11 C18.69196177 18.73392603 21.43178674 25.07528275 21.80078125 33.71484375 C22.0675155 36.77444247 22.99714199 38.68900999 25 41 C29.48474674 42.49491558 34.5121496 43.15796289 38.921875 41.10546875 C40.74340386 39.91549942 40.74340386 39.91549942 43 38 C41.60186993 41.37881434 40.17112209 43.15017878 37 45 C33.14844253 46.19826232 31.26165737 46.08120401 27.375 44.875 C23.35654935 42.64252742 20.74408072 40.53194982 19.40478516 35.97460938 C18.9224194 33.59404981 18.51606265 31.2096906 18.125 28.8125 C15.8342663 16.7661641 12.02382774 9.86112446 1.9765625 2.49609375 C1.32429687 2.00238281 0.67203125 1.50867188 0 1 C0 0.67 0 0.34 0 0 Z " fill="#BFBABA" transform="translate(156,131)"/>
<path d="M0 0 C3.96409444 1.5198658 5.6971501 3.90150936 8.125 7.3125 C8.80820313 8.25738281 9.49140625 9.20226562 10.1953125 10.17578125 C11.83915762 12.74829212 12.8731274 15.1828185 14 18 C14.66 18.33 15.32 18.66 16 19 C17 21.4765625 17 21.4765625 18 24.625 C18.34675781 25.71167969 18.69351563 26.79835937 19.05078125 27.91796875 C21.908788 37.19766969 23.20373474 45.32944594 23.25 55.0625 C23.270625 56.15111328 23.29125 57.23972656 23.3125 58.36132812 C23.31765625 59.40869141 23.3228125 60.45605469 23.328125 61.53515625 C23.34214355 62.96420288 23.34214355 62.96420288 23.35644531 64.42211914 C22.94328616 67.41016537 21.98475189 68.77517829 20 71 C20.0721875 70.32195312 20.144375 69.64390625 20.21875 68.9453125 C21.89943977 52.09172892 20.65313319 36.37130717 13 21 C12.53464844 20.05511719 12.06929687 19.11023438 11.58984375 18.13671875 C8.67483089 12.51657396 5.33990629 7.56932323 1.3203125 2.6796875 C0 1 0 1 0 0 Z " fill="#B24F52" transform="translate(200,106)"/>
<path d="M0 0 C0.495 0.99 0.495 0.99 1 2 C-0.27002498 4.40397585 -1.57893375 6.69013966 -3 9 C-3.474375 9.845625 -3.94875 10.69125 -4.4375 11.5625 C-5.75691498 13.62078736 -7.11468493 15.39001364 -8.6875 17.25 C-11.10726666 19.52871525 -11.10726666 19.52871525 -11 21 C-11.83144531 21.06058594 -12.66289062 21.12117188 -13.51953125 21.18359375 C-15.14955078 21.30927734 -15.14955078 21.30927734 -16.8125 21.4375 C-17.89144531 21.51871094 -18.97039062 21.59992188 -20.08203125 21.68359375 C-23.05989905 21.90212461 -23.05989905 21.90212461 -26 23 C-27.80872376 23.14359334 -29.62332577 23.22046121 -31.4375 23.25 C-32.38496094 23.27578125 -33.33242187 23.3015625 -34.30859375 23.328125 C-37.3902834 22.95241828 -38.71972555 22.0484735 -41 20 C-40.11699219 20.03480469 -39.23398438 20.06960937 -38.32421875 20.10546875 C-26.51814311 20.37177121 -16.85476697 19.33161882 -8 11 C-4.68024661 7.58412902 -2.02375638 4.33121692 0 0 Z " fill="#C95D61" transform="translate(219,177)"/>
<path d="M0 0 C2.62337141 2.43828692 4.57570115 5.1319183 6.625 8.0625 C10.7143177 13.7500281 15.24345289 18.86838466 20 24 C29 33.75285171 29 33.75285171 29 40.9375 C28.34596804 44.90679738 26.81155581 47.21943603 23.8203125 49.87109375 C20.53011287 51.91158236 17.85612277 52 14 52 C13.01 51.34 12.02 50.68 11 50 C11.61488281 49.93941406 12.22976562 49.87882812 12.86328125 49.81640625 C13.67152344 49.73261719 14.47976562 49.64882813 15.3125 49.5625 C16.11300781 49.48128906 16.91351563 49.40007812 17.73828125 49.31640625 C20.16087179 49.04734307 20.16087179 49.04734307 23 48 C23 47.34 23 46.68 23 46 C23.495 45.62875 23.99 45.2575 24.5 44.875 C26.52301343 42.34623321 26.42142757 40.14269237 26.27734375 36.984375 C25.53002339 31.63735048 21.92967368 28.86730154 17.9140625 25.72265625 C15.31673153 23.38505838 13.1813766 20.7168054 11 18 C10.56445801 17.4649585 10.12891602 16.92991699 9.68017578 16.37866211 C8.35621349 14.74218598 7.05160887 13.09179032 5.75 11.4375 C5.30398437 10.88642578 4.85796875 10.33535156 4.3984375 9.76757812 C1.89094893 6.56483136 0.39516999 4.08089009 0 0 Z " fill="#AC5354" transform="translate(79,232)"/>
<path d="M0 0 C14.7149145 12.26242875 24.74542112 26.33009385 33.375 43.375 C33.70870605 44.02855469 34.04241211 44.68210938 34.38623047 45.35546875 C39.39049676 55.46177106 39.39049676 55.46177106 38.625 60.4375 C38.41875 60.953125 38.2125 61.46875 38 62 C37.6596875 61.01902344 37.319375 60.03804687 36.96875 59.02734375 C29.53832393 38.10916435 18.36327633 19.1418018 1.94921875 3.96875 C0 2 0 2 0 0 Z " fill="#C3BDBC" transform="translate(225,63)"/>
<path d="M0 0 C3.91943447 7.18289664 4.49445194 15.94650183 5 24 C5.06574219 24.97582031 5.13148438 25.95164063 5.19921875 26.95703125 C5.43099574 33.43879473 4.72590549 39.29608543 3.1875 45.5625 C3.0222583 46.24135254 2.8570166 46.92020508 2.68676758 47.61962891 C1.69860046 51.32769693 0.55791024 54.11960251 -2 57 C-2 55.35 -2 53.7 -2 52 C-1.34 52 -0.68 52 0 52 C2.25669162 35.94122126 3.6886022 18.68605903 -0.59594727 2.78881836 C-0.72928467 2.1985083 -0.86262207 1.60819824 -1 1 C-0.67 0.67 -0.34 0.34 0 0 Z " fill="#B44E52" transform="translate(243,133)"/>
<path d="M0 0 C0.66 0 1.32 0 2 0 C2 1.32 2 2.64 2 4 C1.34 4 0.68 4 0 4 C-1.72756549 24.76147617 -1.72756549 24.76147617 2 45 C2.40915261 46.67954619 2.78649764 48.36730166 3.125 50.0625 C3.29257813 50.87847656 3.46015625 51.69445312 3.6328125 52.53515625 C4.0090331 55.06063712 4.06362151 57.45059508 4 60 C1.69881725 56.54822587 0.89006389 53.21961988 -0.0625 49.25 C-0.23587891 48.5590625 -0.40925781 47.868125 -0.58789062 47.15625 C-2.58896769 38.99860249 -3.20628992 31.13140776 -3.25 22.75 C-3.270625 21.77675781 -3.29125 20.80351562 -3.3125 19.80078125 C-3.34985356 12.76897383 -2.17009254 6.68048097 0 0 Z " fill="#C0BABB" transform="translate(85,142)"/>
<path d="M0 0 C-3.38568261 1.35427305 -5.4276389 0.56062699 -8.78710938 -0.50195312 C-13.67625773 -1.60233515 -18.76449125 -1.28406954 -23.75 -1.25 C-24.86632812 -1.25773437 -25.98265625 -1.26546875 -27.1328125 -1.2734375 C-34.29691077 -1.25673797 -41.00441361 -0.54557747 -48 1 C-36.7834724 -10.2165276 -12.82884786 -5.22656765 0 0 Z " fill="#C1BBBC" transform="translate(165,107)"/>
<path d="M0 0 C1 3 1 3 0.109375 5.12890625 C-0.33921875 5.93199219 -0.7878125 6.73507813 -1.25 7.5625 C-6.92749711 18.41282782 -8.19182912 28.91476517 -8 41 C-8.66 41 -9.32 41 -10 41 C-10.33 42.32 -10.66 43.64 -11 45 C-11.33 45 -11.66 45 -12 45 C-12.38879026 28.77880648 -8.55425967 13.79883554 0 0 Z " fill="#E06564" transform="translate(49,108)"/>
<path d="M0 0 C1 2 1 2 0.25 4.3125 C-2.18164561 9.54053806 -3.92759552 12.1545048 -9 15 C-9.58007812 15.59425781 -10.16015625 16.18851563 -10.7578125 16.80078125 C-13.43031825 19.42207174 -16.36135034 21.51564023 -19.4375 23.625 C-19.99759766 24.01945312 -20.55769531 24.41390625 -21.13476562 24.8203125 C-24.30984218 27.01359759 -27.35284356 28.73201664 -31 30 C-31 29.34 -31 28.68 -31 28 C-29.234375 26.87890625 -29.234375 26.87890625 -26.75 25.5625 C-15.84272829 19.20635298 -7.60326119 9.92647988 0 0 Z " fill="#C0BABA" transform="translate(256,208)"/>
<path d="M0 0 C3.68889269 1.2296309 3.87676682 2.11176943 5.6875 5.4375 C8.94156476 11.09568724 12.82371531 16.00058866 17 21 C17.47695312 21.58910156 17.95390625 22.17820312 18.4453125 22.78515625 C21.11233051 26.06441425 23.97515977 29.05078077 27 32 C28.66666667 33.66666667 30.33333333 35.33333333 32 37 C27.43986657 35.57963057 24.57561659 33.04213586 21.3125 29.6875 C20.79357178 29.1605957 20.27464355 28.63369141 19.73999023 28.09082031 C0 7.63668297 0 7.63668297 0 0 Z " fill="#A94E54" transform="translate(58,245)"/>
<path d="M0 0 C0.66 0 1.32 0 2 0 C2.15855469 0.72703125 2.31710938 1.4540625 2.48046875 2.203125 C5.14943818 13.7047612 9.63328275 23.81841315 15.49682617 34.01293945 C16.40507301 35.63612019 17.21103111 37.31561403 18 39 C17.67 39.99 17.34 40.98 17 42 C0 13.99746193 0 13.99746193 0 0 Z " fill="#A64A4E" transform="translate(40,203)"/>
<path d="M0 0 C0.33 0 0.66 0 1 0 C1.52732612 14.27228436 0.57977701 27.16032637 -3 41 C-3.66 41 -4.32 41 -5 41 C-5.4021875 42.3921875 -5.4021875 42.3921875 -5.8125 43.8125 C-6.91148371 46.76240366 -7.62418561 48.05615186 -10 50 C-8.99216611 46.90650986 -7.94212587 43.84845139 -6.78125 40.80859375 C-1.66819275 27.35564128 -0.64736156 14.2249185 0 0 Z " fill="#C4BEBF" transform="translate(269,154)"/>
<path d="M0 0 C0 0.66 0 1.32 0 2 C-0.53367187 2.25652344 -1.06734375 2.51304688 -1.6171875 2.77734375 C-8.23060622 6.17558832 -16.5760125 11.152025 -20 18 C-20.66 18 -21.32 18 -22 18 C-22.28875 18.9075 -22.5775 19.815 -22.875 20.75 C-23.76531776 23.32202908 -24.71494413 25.61346766 -26 28 C-26.66 28 -27.32 28 -28 28 C-28.99 30.475 -28.99 30.475 -30 33 C-30.33 32.34 -30.66 31.68 -31 31 C-26.97032691 20.90829695 -12.54251207 0 0 0 Z " fill="#BCB6B8" transform="translate(117,108)"/>
<path d="M0 0 C2.94328567 3.29329802 3.44556788 5.77830907 3.875 10.125 C5.30808156 20.52940514 9.77463347 27.54558727 17 35 C16.01 35.495 16.01 35.495 15 36 C14.34 35.67 13.68 35.34 13 35 C13 34.34 13 33.68 13 33 C12.34 33 11.68 33 11 33 C8 28.61538462 8 28.61538462 8 26 C7.01 25.67 6.02 25.34 5 25 C1.7429022 17.02572607 0.34968951 8.56739289 0 0 Z " fill="#B65155" transform="translate(151,156)"/>
<path d="M0 0 C0.66 0.33 1.32 0.66 2 1 C-5.17889084 7.00110406 -12.41606077 12.55066046 -20.5625 17.1875 C-21.22830078 17.57349365 -21.89410156 17.9594873 -22.58007812 18.35717773 C-26.18047235 20.34242049 -28.86535766 21.4840944 -33 21 C-32.401875 20.731875 -31.80375 20.46375 -31.1875 20.1875 C-28.98721359 19.14254583 -28.98721359 19.14254583 -27.62109375 17.5234375 C-25.76748847 15.78149519 -24.28076467 15.21426903 -21.875 14.4375 C-19.78521731 13.79579349 -19.78521731 13.79579349 -18 13 C-17.67 12.34 -17.34 11.68 -17 11 C-15.68 11 -14.36 11 -13 11 C-13 10.34 -13 9.68 -13 9 C-10.36107824 7.21694476 -8.02821137 6.00940379 -5 5 C-4.67 4.01 -4.34 3.02 -4 2 C-2.0625 0.75 -2.0625 0.75 0 0 Z " fill="#D2CCC9" transform="translate(258,243)"/>
<path d="M0 0 C3.24996026 1.78223627 6.03283768 3.83425407 8.875 6.1875 C14.09941757 10.33526395 19.8323884 13.26927035 25.7421875 16.30078125 C29 18 29 18 32 20 C23.42857143 19.14285714 23.42857143 19.14285714 20 17 C20 16.34 20 15.68 20 15 C18.865625 14.731875 17.73125 14.46375 16.5625 14.1875 C14.7990625 13.5996875 14.7990625 13.5996875 13 13 C12.67 12.01 12.34 11.02 12 10 C11.29875 9.731875 10.5975 9.46375 9.875 9.1875 C5.96685964 7.57326811 2.89898839 5.07443149 0 2 C0 1.34 0 0.68 0 0 Z " fill="#BCB7B7" transform="translate(130,222)"/>
<path d="M0 0 C2.0245738 1.93254772 3.42105792 3.63158688 5 6 C9.48474674 7.49491558 14.5121496 8.15796289 18.921875 6.10546875 C20.74340386 4.91549942 20.74340386 4.91549942 23 3 C21.60186993 6.37881434 20.17112209 8.15017878 17 10 C13.14844253 11.19826232 11.26165737 11.08120401 7.375 9.875 C3.87455375 7.93030764 2.10983556 6.37573689 0 3 C0 2.01 0 1.02 0 0 Z " fill="#AFA2A4" transform="translate(176,166)"/>
<path d="M0 0 C0.49628906 0.38671875 0.99257812 0.7734375 1.50390625 1.171875 C5.2566808 4.04876479 8.96438786 6.648948 13.125 8.921875 C16.87633301 11.07889148 20.42376004 13.5671837 24 16 C23.34 16.33 22.68 16.66 22 17 C14.71403899 13.86298901 6.90342095 9.32036703 1 4 C0.2265625 1.7890625 0.2265625 1.7890625 0 0 Z " fill="#C2BCBC" transform="translate(119,244)"/>
<path d="M0 0 C0.66 0.33 1.32 0.66 2 1 C1.36191406 1.84304687 0.72382812 2.68609375 0.06640625 3.5546875 C-0.76831357 4.66139468 -1.60294437 5.76816901 -2.4375 6.875 C-2.85837891 7.43058594 -3.27925781 7.98617187 -3.71289062 8.55859375 C-6.05745944 11.65092886 -6.05745944 11.65092886 -8 15 C-8.66 15 -9.32 15 -10 15 C-10 15.99 -10 16.98 -10 18 C-10.66 18 -11.32 18 -12 18 C-12.66 19.32 -13.32 20.64 -14 22 C-14.33 21.34 -14.66 20.68 -15 20 C-13.44052267 17.78947874 -11.87753183 15.58158389 -10.3125 13.375 C-9.87744141 12.75753906 -9.44238281 12.14007813 -8.99414062 11.50390625 C-6.15808974 7.51242722 -3.17970328 3.72397682 0 0 Z " fill="#AA4B4A" transform="translate(65,86)"/>
<path d="M0 0 C0.33 0.66 0.66 1.32 1 2 C-0.65 2 -2.3 2 -4 2 C-4 2.66 -4 3.32 -4 4 C-4.76183594 4.12117188 -5.52367188 4.24234375 -6.30859375 4.3671875 C-12.59527564 5.38749792 -18.79770268 6.55279729 -25 8 C-24 6 -24 6 -21.4453125 5 C-14.34271503 2.86086476 -7.33572356 1.11726451 0 0 Z " fill="#AC5052" transform="translate(127,55)"/>
<path d="M0 0 C-6.84574864 3.32635075 -13.33898506 5.35842278 -21 4 C-23.3203125 2.47265625 -23.3203125 2.47265625 -25 1 C-24.0821875 1.02320313 -23.164375 1.04640625 -22.21875 1.0703125 C-15.73407823 1.16567532 -5.73508557 -1.91169519 0 0 Z " fill="#BA5457" transform="translate(203,196)"/>
<path d="M0 0 C1 3 1 3 0.109375 5.1640625 C-0.33921875 5.97617188 -0.7878125 6.78828125 -1.25 7.625 C-3.71748849 12.29879435 -5.49715573 16.94164613 -7 22 C-7.66 22 -8.32 22 -9 22 C-8.4560915 16.52638111 -6.44606199 12.41682999 -3.9375 7.625 C-3.37192383 6.52091797 -3.37192383 6.52091797 -2.79492188 5.39453125 C-1.87055636 3.59260354 -0.93627386 1.79576901 0 0 Z " fill="#A54B4C" transform="translate(49,108)"/>
<path d="M0 0 C4 0 4 0 5.75 1.375 C7 3 7 3 7 5 C7.66 5 8.32 5 9 5 C9.66 7.64 10.32 10.28 11 13 C5.99386227 9.27450216 3.04422227 5.42841405 0 0 Z " fill="#E6666A" transform="translate(66,255)"/>
<path d="M0 0 C0.66 0.33 1.32 0.66 2 1 C1.02041148 9.22338785 -0.49900287 16.47115666 -4 24 C-4.33 24 -4.66 24 -5 24 C-5 22.35 -5 20.7 -5 19 C-4.34 19 -3.68 19 -3 19 C-2.86722656 17.87980469 -2.73445312 16.75960937 -2.59765625 15.60546875 C-2.41943431 14.13279271 -2.24103989 12.66013753 -2.0625 11.1875 C-1.97548828 10.44951172 -1.88847656 9.71152344 -1.79882812 8.95117188 C-1.41783454 5.83266879 -0.99630626 2.98891878 0 0 Z " fill="#AD4A4B" transform="translate(246,166)"/>
<path d="M0 0 C7.16282622 2.46222151 13.47339961 6.88789464 19 12 C19 12.66 19 13.32 19 14 C14.53204949 12.59578698 12.23064288 10.3156598 9 7 C8.01 6.67 7.02 6.34 6 6 C6 5.34 6 4.68 6 4 C3.03 3.505 3.03 3.505 0 3 C0 2.01 0 1.02 0 0 Z " fill="#D4CDCD" transform="translate(165,108)"/>
<path d="M0 0 C3.06819178 2.60888163 4.44860146 5.62763129 6.125 9.25 C6.64320313 10.34828125 7.16140625 11.4465625 7.6953125 12.578125 C9.03459746 16.09074064 9.61201329 19.27154231 10 23 C9.34 23 8.68 23 8 23 C7.34 19.7 6.68 16.4 6 13 C5.34 13 4.68 13 4 13 C3.32942113 11.2097939 2.6636531 9.41778511 2 7.625 C1.62875 6.62726563 1.2575 5.62953125 0.875 4.6015625 C0 2 0 2 0 0 Z " fill="#BC5458" transform="translate(233,110)"/>
<path d="M0 0 C4.30518463 5.53523738 6.49806191 10.18351174 8 17 C7.34 17.33 6.68 17.66 6 18 C6 16.68 6 15.36 6 14 C5.01 13.67 4.02 13.34 3 13 C2.19024679 10.30082264 1.53763515 7.75021059 1 5 C0.79375 4.01 0.5875 3.02 0.375 2 C0.25125 1.34 0.1275 0.68 0 0 Z " fill="#CB6161" transform="translate(73,221)"/>
<path d="M0 0 C0.33 0.66 0.66 1.32 1 2 C0.06398754 3.41764994 -0.8738792 4.83407568 -1.8125 6.25 C-2.33457031 7.03890625 -2.85664063 7.8278125 -3.39453125 8.640625 C-4.87134122 10.81092481 -6.40689873 12.91413768 -8 15 C-8.66 14.67 -9.32 14.34 -10 14 C-8.75023244 10.34683329 -8.32901247 9.21934164 -5 7 C-4.67 6.01 -4.34 5.02 -4 4 C-2.70644173 2.62804426 -1.37701298 1.28817344 0 0 Z " fill="#C2575B" transform="translate(240,190)"/>
<path d="M0 0 C1 2 1 2 0.25 4.3125 C-1.01584704 7.03407114 -2.28670874 9.53286059 -4 12 C-4.99 12.33 -5.98 12.66 -7 13 C-5.74875245 7.31251115 -3.95897432 4.27152492 0 0 Z " fill="#D5D2D0" transform="translate(256,208)"/>
<path d="M0 0 C2.97 0.33 5.94 0.66 9 1 C6 4 6 4 3 6 C0.8125 5.625 0.8125 5.625 -1 5 C-0.67 3.35 -0.34 1.7 0 0 Z " fill="#D25E63" transform="translate(212,212)"/>
<path d="M0 0 C0.99 0.33 1.98 0.66 3 1 C3 1.99 3 2.98 3 4 C2.34 4 1.68 4 1 4 C0.67 4.99 0.34 5.98 0 7 C-0.66 7 -1.32 7 -2 7 C-2.66 8.65 -3.32 10.3 -4 12 C-4.66 12 -5.32 12 -6 12 C-4 8 -2 4 0 0 Z " fill="#E4696A" transform="translate(220,177)"/>
<path d="M0 0 C3.96873434 1.32291145 4.29905037 2.91149738 6.1875 6.5625 C6.71730469 7.57441406 7.24710937 8.58632812 7.79296875 9.62890625 C8.19128906 10.41136719 8.58960937 11.19382812 9 12 C8.01 12.495 8.01 12.495 7 13 C5.82786955 11.21190303 4.66244474 9.41940875 3.5 7.625 C2.8503125 6.62726563 2.200625 5.62953125 1.53125 4.6015625 C0 2 0 2 0 0 Z " fill="#B15557" transform="translate(58,245)"/>
<path d="M0 0 C5.28137429 0.51525603 8.57221156 2.25477117 13 5 C10 6 10 6 8.1875 5.125 C7.465625 4.75375 6.74375 4.3825 6 4 C4.00889599 3.61709538 2.00899487 3.27395385 0 3 C0 2.01 0 1.02 0 0 Z " fill="#CF666B" transform="translate(185,66)"/>
<path d="M0 0 C3.41021743 0.78697325 6.68885166 1.87119943 10 3 C10 4.32 10 5.64 10 7 C6.42032008 5.34784004 3.22017048 3.26875648 0 1 C0 0.67 0 0.34 0 0 Z " fill="#E5656A" transform="translate(181,89)"/>
<path d="M0 0 C0.66 0.33 1.32 0.66 2 1 C-0.20249807 4.36170759 -2.33676075 6.30240132 -6 8 C-8.3125 7.6875 -8.3125 7.6875 -10 7 C-8.15494051 5.15494051 -6.6932977 4.17606951 -4.4375 2.9375 C-1.259699 1.34929866 -1.259699 1.34929866 0 0 Z " fill="#E16867" transform="translate(93,67)"/>
<path d="M0 0 C2.67927341 4.01891012 2.15601248 6.24161923 2 11 C1.34 11 0.68 11 0 11 C-1.125 3.375 -1.125 3.375 0 0 Z " fill="#EA6A6B" transform="translate(243,142)"/>
<path d="M0 0 C-5.75 4 -5.75 4 -8 4 C-8 4.66 -8 5.32 -8 6 C-8.99 6 -9.98 6 -11 6 C-11 4 -11 4 -9.75 2.5 C-6.40379117 -0.368179 -4.28661232 -1.53093297 0 0 Z " fill="#E6656B" transform="translate(100,91)"/>
<path d="M0 0 C4.38889325 0.66498383 7.9811485 2.18757677 12 4 C8.69564916 5.12377697 6.9493138 4.89554742 3.75 3.5625 C3.04359375 3.27503906 2.3371875 2.98757812 1.609375 2.69140625 C1.07828125 2.46324219 0.5471875 2.23507813 0 2 C0 1.34 0 0.68 0 0 Z " fill="#CCC8C9" transform="translate(150,237)"/>
<path d="M0 0 C3.73884332 2.65654657 5.64978174 4.58110387 7 9 C6.01 9.33 5.02 9.66 4 10 C3.67 8.02 3.34 6.04 3 4 C2.34 4 1.68 4 1 4 C0.67 2.68 0.34 1.36 0 0 Z " fill="#D4CFCC" transform="translate(184,122)"/>
<path d="M0 0 C3.15140423 0.34069235 4.60781561 0.58076841 6.8125 2.9375 C8 5 8 5 8 7 C4.2047869 5.50902342 2.38957269 3.24299151 0 0 Z " fill="#E46870" transform="translate(80,272)"/>
<path d="M0 0 C0.33 1.32 0.66 2.64 1 4 C-2.63 3.34 -6.26 2.68 -10 2 C-10 1.67 -10 1.34 -10 1 C-6.59437148 0.22157062 -3.49234244 -0.09978121 0 0 Z " fill="#EA686B" transform="translate(170,80)"/>
<path d="M0 0 C0 0.33 0 0.66 0 1 C-5.28 0.67 -10.56 0.34 -16 0 C-16 -0.33 -16 -0.66 -16 -1 C-9.93179132 -2.08360869 -5.89893243 -1.79074734 0 0 Z " fill="#A7504F" transform="translate(160,81)"/>
<path d="M0 0 C0 0.66 0 1.32 0 2 C-4.95 3.485 -4.95 3.485 -10 5 C-9 2 -9 2 -7.25 0.8125 C-4.70039426 -0.10819096 -2.69076919 -0.14948718 0 0 Z " fill="#B45859" transform="translate(105,62)"/>
<path d="M0 0 C0.99 0.33 1.98 0.66 3 1 C3.73046875 2.84765625 3.73046875 2.84765625 4.1875 5.0625 C4.34605469 5.79597656 4.50460938 6.52945313 4.66796875 7.28515625 C4.83232422 8.13400391 4.83232422 8.13400391 5 9 C4.01 8.67 3.02 8.34 2 8 C0.5522078 5.10441559 0 3.25811062 0 0 Z " fill="#BFB9B8" transform="translate(89,202)"/>
<path d="M0 0 C2.32472205 2.85306797 3.7508258 5.54074837 5 9 C0.125 6.25 0.125 6.25 -1 4 C-0.5625 1.875 -0.5625 1.875 0 0 Z " fill="#CBC8C5" transform="translate(114,198)"/>
<path d="M0 0 C3.96 0 7.92 0 12 0 C8 3 8 3 6 2.8125 C3.9535978 1.98114911 1.97563281 0.98781641 0 0 Z " fill="#EC696E" transform="translate(182,200)"/>
<path d="M0 0 C2.375 0.25 2.375 0.25 5 1 C6.3125 3.0625 6.3125 3.0625 7 5 C4.0625 4.1875 4.0625 4.1875 1 3 C0.67 2.01 0.34 1.02 0 0 Z " fill="#B35A59" transform="translate(144,151)"/>
<path d="M0 0 C2.31 0 4.62 0 7 0 C7.33 0.66 7.66 1.32 8 2 C2.25 3.125 2.25 3.125 0 2 C0 1.34 0 0.68 0 0 Z " fill="#E26C6C" transform="translate(92,280)"/>
</svg>
