<?xml version="1.0" encoding="UTF-8"?>
<svg version="1.1" xmlns="http://www.w3.org/2000/svg" width="460" height="460">
<path d="M0 0 C0 0.66 0 1.32 0 2 C0.680625 2.185625 1.36125 2.37125 2.0625 2.5625 C5.54722989 4.26779335 7.59351163 6.42658564 10.24609375 9.2109375 C12.12692382 11.19672832 12.12692382 11.19672832 15 13.4375 C37.15730197 32.36352877 50.10343412 64.32609548 52.484375 92.89453125 C53.68164298 112.3433111 50.79027419 131.64962611 38.9375 147.8125 C38.298125 148.534375 37.65875 149.25625 37 150 C36.29875 150.928125 35.5975 151.85625 34.875 152.8125 C34.25625 153.534375 33.6375 154.25625 33 155 C32.34 155 31.68 155 31 155 C31 155.66 31 156.32 31 157 C18.33471177 171.15532214 -1.58505683 177.00013846 -19.9609375 178.03125 C-26.82286989 178.12474592 -33.37198971 176.63815353 -40 175 C-41.57587891 174.61521484 -41.57587891 174.61521484 -43.18359375 174.22265625 C-61.31903114 168.99637482 -75.5577063 155.58303662 -84.75463867 139.49243164 C-90.84667092 128.14729891 -95.80369427 111.96720022 -92.18359375 99.09765625 C-90.21414609 95.08726283 -88.46800577 93.28600352 -84.625 90.9375 C-79.48933391 89.60931049 -75.82634717 89.31959615 -70.8125 91.1875 C-66.1303488 94.20488633 -63.72862011 97.76962583 -62 103 C-61.83424721 105.22543495 -61.73497009 107.4564058 -61.6875 109.6875 C-61.27187018 116.54539208 -59.69800933 121.25756274 -56 127 C-55.33291016 128.06154297 -55.33291016 128.06154297 -54.65234375 129.14453125 C-48.04887339 138.76462874 -39.42268304 143.87484967 -28 146 C-17.0143758 147.00806562 -5.41461458 146.61552711 3.75 139.875 C5.19537167 138.61553664 6.61241843 137.32286228 8 136 C8.7115625 135.35160156 9.423125 134.70320312 10.15625 134.03515625 C18.85385214 125.32132724 21.46771437 114.88900817 21.625 102.9375 C21.25191571 75.97301608 10.21802283 52.65567462 -8.25 33.4375 C-11.59629467 30.22175892 -15.1776947 27.6231507 -19 25 C-19.46277344 24.51789063 -19.92554688 24.03578125 -20.40234375 23.5390625 C-35.14346502 9.33856915 -61.82404092 5.35515765 -81.25390625 5.45483398 C-91.38785 5.73378381 -100.4560206 7.70320029 -110 11 C-111.18722656 11.38414062 -112.37445313 11.76828125 -113.59765625 12.1640625 C-124.63492313 16.03171025 -134.40993031 22.09349023 -143 30 C-144.485 31.175625 -144.485 31.175625 -146 32.375 C-156.51895751 41.57908782 -164.58129068 53.76921861 -169.9375 66.625 C-170.20755859 67.26816162 -170.47761719 67.91132324 -170.75585938 68.57397461 C-175.41989363 80.45397831 -176.5106656 92.03156256 -176.44604492 104.65454102 C-176.43756908 107.16702322 -176.46634569 109.67719565 -176.49804688 112.18945312 C-176.54860261 123.59682448 -175.01703718 134.00986576 -172 145 C-171.69731201 146.10609619 -171.39462402 147.21219238 -171.08276367 148.35180664 C-170.24065273 151.23799982 -169.33342174 154.08796926 -168.375 156.9375 C-168.04016602 157.93821533 -167.70533203 158.93893066 -167.36035156 159.9699707 C-163.27316355 171.70899315 -157.97699536 183.3797436 -150 193 C-149.03900391 194.45212891 -149.03900391 194.45212891 -148.05859375 195.93359375 C-145.90342826 199.14384975 -143.55984534 202.11815544 -141.0625 205.0625 C-140.59521484 205.61760254 -140.12792969 206.17270508 -139.64648438 206.74462891 C-135.49160952 211.59698768 -131.01584202 216.0837935 -126.32836914 220.42211914 C-122.58721825 223.99545352 -120.64761175 227.0686065 -119 232 C-119 237.54497772 -120.01360266 241.16871594 -123.48828125 245.51953125 C-127.12549488 249.081557 -130.8010628 249.92007085 -135.75 250.25 C-141.93440138 249.20918098 -146.55260694 244.09533772 -151 240 C-151.90298828 239.17628906 -151.90298828 239.17628906 -152.82421875 238.3359375 C-154 237 -154 237 -154 235 C-154.556875 234.77828125 -155.11375 234.5565625 -155.6875 234.328125 C-158.72896833 232.58133576 -160.66178197 230.35910914 -163 227.75 C-163.845625 226.81671875 -164.69125 225.8834375 -165.5625 224.921875 C-167.95547848 222.05336875 -169.98677742 219.14415638 -172 216 C-172.70898438 214.91203125 -173.41796875 213.8240625 -174.1484375 212.703125 C-176.08844367 209.70187462 -178.01403581 206.69156666 -179.93212891 203.67626953 C-180.82852151 202.26917497 -181.7318117 200.86647781 -182.63671875 199.46484375 C-204.63134499 164.33370102 -211.91776377 120.82348931 -205.35400391 80.26855469 C-205.0763565 78.48931353 -204.84725478 76.70248688 -204.63671875 74.9140625 C-202.90960174 61.72138555 -196.35388454 47.94581081 -189 37 C-188.22870851 35.68776918 -187.45786941 34.37527236 -186.6875 33.0625 C-176.67304263 17.24853092 -162.0706503 3.1125688 -145.73461914 -6.01318359 C-144.12687004 -6.92782425 -142.55730256 -7.90871203 -140.9921875 -8.89453125 C-101.12578308 -33.42386028 -36.11579577 -32.14494912 0 0 Z " fill="#F36565" transform="translate(279,125)"/>
<path d="M0 0 C7.17854549 4.56184987 13.18140331 10.85266904 19 17 C19.57105469 17.58910156 20.14210938 18.17820312 20.73046875 18.78515625 C26.97794344 25.53717759 31.93704032 33.34972597 37 41 C37.71542969 42.07507813 38.43085938 43.15015625 39.16796875 44.2578125 C57.14025082 72.31035657 65.93558986 104.81817083 67 138 C67.03996094 138.81082031 67.07992188 139.62164062 67.12109375 140.45703125 C67.35322001 148.69068637 66.1401452 156.86515448 65 165 C64.86319824 166.02649658 64.86319824 166.02649658 64.72363281 167.07373047 C63.31763713 177.25856587 60.28370184 185.94519975 55.8449707 195.20092773 C55.00370029 196.99212151 54.2261533 198.81278949 53.44921875 200.6328125 C49.51374271 209.77669483 44.46279469 217.45377384 38 225 C37.41089844 225.69996094 36.82179688 226.39992188 36.21484375 227.12109375 C30.37052653 233.95055784 24.13220589 240.50259186 17 246 C15.81470703 246.92619141 15.81470703 246.92619141 14.60546875 247.87109375 C8.91052043 252.18100457 3.18938647 255.63598938 -3.2734375 258.67578125 C-6.02614654 259.9613351 -6.02614654 259.9613351 -8.6171875 261.58203125 C-14.64159675 265.16704856 -22.05081796 266.63408416 -28.75 268.625 C-29.4831543 268.84333496 -30.21630859 269.06166992 -30.97167969 269.28662109 C-31.67711914 269.49367676 -32.38255859 269.70073242 -33.109375 269.9140625 C-33.73811523 270.0992041 -34.36685547 270.2843457 -35.01464844 270.47509766 C-43.14231774 272.62395267 -51.34764092 272.29817939 -59.70507812 272.35009766 C-61.62675226 272.36648652 -63.54836995 272.39354347 -65.46972656 272.43212891 C-90.95394938 272.93969483 -121.38411728 265.54560486 -141 248 C-141 247.34 -141 246.68 -141 246 C-141.680625 245.814375 -142.36125 245.62875 -143.0625 245.4375 C-146.55175644 243.72999153 -148.60020274 241.5680126 -151.25390625 238.77734375 C-153.09939742 236.82188028 -153.09939742 236.82188028 -155.875 234.75 C-160.6410902 230.87357997 -164.25938291 225.82998978 -168 221 C-168.61101562 220.21625 -169.22203125 219.4325 -169.8515625 218.625 C-177.04449041 208.90305178 -182.64924398 197.61718159 -186 186 C-186.59941406 184.14568359 -186.59941406 184.14568359 -187.2109375 182.25390625 C-187.6617395 180.85686153 -188.11225778 179.45972523 -188.5625 178.0625 C-188.77285889 177.41796875 -188.98321777 176.7734375 -189.19995117 176.109375 C-195.28378521 156.87241226 -196.39976848 133.64178383 -188 115 C-187.49597656 113.86304688 -186.99195313 112.72609375 -186.47265625 111.5546875 C-180.71716199 99.39931795 -171.0585533 87.24024581 -159 81 C-157.71802734 80.28650391 -157.71802734 80.28650391 -156.41015625 79.55859375 C-137.25834534 69.30144938 -117.69734026 68.09808851 -97.0625 74.0625 C-78.38232528 79.94445408 -64.21892867 93.58982264 -55.06640625 110.625 C-51.81275292 117.17008915 -50.1769356 123.81995264 -49 131 C-48.70802734 132.75183594 -48.70802734 132.75183594 -48.41015625 134.5390625 C-47.52824238 141.71196197 -48.01207025 147.79655372 -52 154 C-56.13134988 157.85125836 -60.52406659 158.1349999 -66 158 C-69.80472746 157.19446224 -72.43828229 155.51617303 -75.3125 152.875 C-78.08368566 148.15372073 -78.74357103 143.2765194 -79.3515625 137.87890625 C-80.3069797 129.9264631 -82.31565988 124.49447678 -87 118 C-87.598125 117.113125 -88.19625 116.22625 -88.8125 115.3125 C-97.27632237 106.36503064 -106.69890961 102.03800718 -119.06005859 101.58007812 C-131.10841815 101.47751465 -140.09781379 103.65317954 -149 112 C-149.71285156 112.64839844 -150.42570312 113.29679687 -151.16015625 113.96484375 C-158.54970736 121.38201935 -162.50419097 131.76345649 -163.06640625 142.20703125 C-162.40309352 170.1051844 -152.27681888 195.48974094 -132.03515625 214.875 C-116.12948773 229.56372476 -97.4289694 238.60663452 -76 242 C-75.15179688 242.15339844 -74.30359375 242.30679688 -73.4296875 242.46484375 C-48.44578485 245.95005901 -21.93387891 236.67406891 -2 222 C1.57262479 219.19261423 4.84114924 216.26292142 8 213 C8.58265625 212.42636719 9.1653125 211.85273438 9.765625 211.26171875 C19.37719719 201.13363684 26.83560294 188.25035428 31 175 C31.37769531 173.95199219 31.75539063 172.90398437 32.14453125 171.82421875 C35.62536153 161.3571284 35.9662024 150.9544002 36 140 C36.00402832 139.15598633 36.00805664 138.31197266 36.01220703 137.44238281 C35.9678731 124.10569176 33.63890057 111.79992655 30 99 C29.78746582 98.22946289 29.57493164 97.45892578 29.35595703 96.66503906 C25.23760091 82.02693443 18.8348251 66.72294553 9 55 C8.53335938 54.20464844 8.06671875 53.40929687 7.5859375 52.58984375 C5.56649265 49.29208036 3.15079925 46.4808221 0.625 43.5625 C-0.3205264 42.4598188 -1.26584002 41.3569551 -2.2109375 40.25390625 C-2.6754834 39.71515869 -3.1400293 39.17641113 -3.61865234 38.62133789 C-4.97772465 37.02614538 -6.30168786 35.4061367 -7.625 33.78125 C-9.54548046 31.53226631 -11.31462575 29.74676568 -13.625 27.9375 C-17.3770588 24.79718992 -19.37921563 21.95103659 -20.875 17.25 C-21.04939389 12.71575875 -20.00946537 9.05757431 -18 5 C-12.94058771 -0.19255472 -7.05664952 -2.49203357 0 0 Z " fill="#2D3646" transform="translate(322,87)"/>
<path d="M0 0 C0.33 0 0.66 0 1 0 C1.0093457 1.07668945 1.01869141 2.15337891 1.02832031 3.26269531 C1.0574105 31.40650514 1.0574105 31.40650514 6 59 C4.29159719 57.36587557 3.06546953 56.13093906 2 54 C1.960008 52.00039988 1.95653201 49.99952758 2 48 C-1.0745356 48.7763932 -1.0745356 48.7763932 -3 51 C-4.125 49.3125 -4.125 49.3125 -5 47 C-4.125 44.25 -4.125 44.25 -3 42 C-2.34 42.33 -1.68 42.66 -1 43 C-1.495 41.515 -1.495 41.515 -2 40 C-1.34 40 -0.68 40 0 40 C0 26.8 0 13.6 0 0 Z " fill="#DD6C6B" transform="translate(101,213)"/>
<path d="M0 0 C2.4294516 3.6441774 2.16179575 5.71241272 2 10 C2.66 10 3.32 10 4 10 C3.95875 11.2375 3.9175 12.475 3.875 13.75 C3.85844823 17.0004736 3.85844823 17.0004736 5 20 C6.62049523 23.24099046 6.11949685 26.41509457 6 30 C6.66 30 7.32 30 8 30 C8 32.31 8 34.62 8 37 C1.37756322 27.06634483 -0.21101589 11.6762127 0 0 Z " fill="#D96E6F" transform="translate(73,251)"/>
<path d="M0 0 C5.35044277 2.35095212 8.74223968 6.54165028 11.375 11.6875 C12 14 12 14 12 18 C11.34 18 10.68 18 10 18 C9.34 15.69 8.68 13.38 8 11 C7.01 11.33 6.02 11.66 5 12 C4.9175 11.236875 4.835 10.47375 4.75 9.6875 C3.83627726 6.41332685 2.64500069 5.96241986 0 4 C0 2.68 0 1.36 0 0 Z " fill="#DD6561" transform="translate(148,343)"/>
<path d="M0 0 C-0.99 1.485 -0.99 1.485 -2 3 C-1.67 3.66 -1.34 4.32 -1 5 C-3.60582371 5.93065133 -4.64198224 6.14917407 -7.25 5.0625 C-7.8275 4.711875 -8.405 4.36125 -9 4 C-9.33 4.66 -9.66 5.32 -10 6 C-10.38800781 5.51917969 -10.77601563 5.03835938 -11.17578125 4.54296875 C-13.54088647 2.54250502 -15.12691453 2.51123932 -18.1875 2.3125 C-19.08855469 2.24675781 -19.98960937 2.18101562 -20.91796875 2.11328125 C-21.60503906 2.07589844 -22.29210937 2.03851563 -23 2 C-23 1.67 -23 1.34 -23 1 C-19.54260157 0.63627421 -16.0839992 0.28564602 -12.625 -0.0625 C-11.14773438 -0.2181543 -11.14773438 -0.2181543 -9.640625 -0.37695312 C-8.69960938 -0.47041016 -7.75859375 -0.56386719 -6.7890625 -0.66015625 C-5.91975098 -0.74918213 -5.05043945 -0.83820801 -4.15478516 -0.92993164 C-2 -1 -2 -1 0 0 Z " fill="#262C39" transform="translate(280,329)"/>
<path d="M0 0 C-3.02664494 1.67206259 -5.81738791 2.46290158 -9.1875 3.1875 C-14.56936584 4.57079082 -18.00183764 6.91339628 -22.125 10.57421875 C-24 12 -24 12 -27 12 C-23.25851757 6.85546166 -19.80910449 4.48109596 -14 2 C-12.7934375 1.38125 -12.7934375 1.38125 -11.5625 0.75 C-7.72779299 -0.37235327 -3.96697788 -0.15556776 0 0 Z " fill="#2A323D" transform="translate(197,187)"/>
<path d="M0 0 C0.82422508 2.35717874 1.15185353 3.57799821 0.29296875 5.96484375 C-0.07183594 6.61582031 -0.43664062 7.26679688 -0.8125 7.9375 C-3.72845916 13.23254497 -5.26005531 17.16748331 -5.125 23.3125 C-5.10695313 24.38113281 -5.08890625 25.44976562 -5.0703125 26.55078125 C-5.04710938 27.35902344 -5.02390625 28.16726562 -5 29 C-6.98 29.99 -6.98 29.99 -9 31 C-8.95354097 20.03566822 -5.09682818 9.62734212 0 0 Z " fill="#DB6D6E" transform="translate(83,176)"/>
<path d="M0 0 C1.97231613 1.97231613 2.76893465 3.38769223 3.9375 5.875 C5.38016409 8.85758644 6.97690765 11.36997994 9 14 C9 14.66 9 15.32 9 16 C8.34 16 7.68 16 7 16 C6.67 14.68 6.34 13.36 6 12 C4.68 12.33 3.36 12.66 2 13 C0.4375 11.5625 0.4375 11.5625 -1 9 C-0.96846324 5.94619073 -0.53266629 3.00346778 0 0 Z " fill="#E06A69" transform="translate(217,242)"/>
<path d="M0 0 C0.66 0.33 1.32 0.66 2 1 C1.13375 1.50660156 1.13375 1.50660156 0.25 2.0234375 C-0.4925 2.46945313 -1.235 2.91546875 -2 3.375 C-2.7425 3.81585938 -3.485 4.25671875 -4.25 4.7109375 C-4.8275 5.13632813 -5.405 5.56171875 -6 6 C-6 6.66 -6 7.32 -6 8 C-6.58007812 8.30292969 -7.16015625 8.60585937 -7.7578125 8.91796875 C-12.66195836 11.54807998 -16.85823175 14.28302849 -21 18 C-21.66 17.67 -22.32 17.34 -23 17 C-7.3153527 2.4384509 -7.3153527 2.4384509 0 0 Z " fill="#DD7070" transform="translate(135,118)"/>
<path d="M0 0 C1.046875 1.83203125 1.046875 1.83203125 2 4 C1.25 6.6875 1.25 6.6875 0 9 C-0.99 9.495 -0.99 9.495 -2 10 C-2 9.34 -2 8.68 -2 8 C-2.99 8.33 -3.98 8.66 -5 9 C-6.22969878 12.51190809 -6.22969878 12.51190809 -7 16 C-7.99 15.67 -8.98 15.34 -10 15 C-7.34104848 9.17076013 -4.3791455 4.67108853 0 0 Z " fill="#EA6B6D" transform="translate(100,148)"/>
<path d="M0 0 C-0.33 0.66 -0.66 1.32 -1 2 C-3.5263765 2.28628332 -5.96566825 2.46717192 -8.5 2.5625 C-13.12221389 2.35294651 -13.12221389 2.35294651 -17 4 C-18.84891946 4.23363881 -20.70488031 4.41303635 -22.5625 4.5625 C-24.08037109 4.68818359 -24.08037109 4.68818359 -25.62890625 4.81640625 C-26.41136719 4.87699219 -27.19382813 4.93757813 -28 5 C-19.58332929 -0.61111381 -9.77354487 -0.38523462 0 0 Z " fill="#D66F6D" transform="translate(192,101)"/>
<path d="M0 0 C0 0.66 0 1.32 0 2 C-5.445 2.495 -5.445 2.495 -11 3 C-11.33 4.32 -11.66 5.64 -12 7 C-14.5625 9.75 -14.5625 9.75 -17 12 C-15.72545246 7.01767779 -13.95677819 4.29731516 -10 1 C-6.76506084 -0.35658739 -3.47413945 -0.07895771 0 0 Z " fill="#D5676B" transform="translate(204,215)"/>
<path d="M0 0 C0 0.66 0 1.32 0 2 C0.99 1.67 1.98 1.34 3 1 C3.33 1.99 3.66 2.98 4 4 C4.99 4.33 5.98 4.66 7 5 C4.62761499 5.83139386 3.40675537 6.14379438 1 5.29296875 C0.01 4.74576172 0.01 4.74576172 -1 4.1875 C-1.99 3.65189453 -1.99 3.65189453 -3 3.10546875 C-3.66 2.74066406 -4.32 2.37585938 -5 2 C-6.33054983 1.32779514 -7.66310493 0.65949511 -9 0 C-2.25 -1.125 -2.25 -1.125 0 0 Z " fill="#E86B6C" transform="translate(247,137)"/>
<path d="M0 0 C0.33 0.66 0.66 1.32 1 2 C0.34 2 -0.32 2 -1 2 C-1 2.99 -1 3.98 -1 5 C-1.66 5 -2.32 5 -3 5 C-3.66 6.32 -4.32 7.64 -5 9 C-5.99 8.67 -6.98 8.34 -8 8 C-8.99 8.33 -9.98 8.66 -11 9 C-9.72648692 5.17946076 -8.37362475 4.76978625 -4.9375 2.8125 C-4.01839844 2.28269531 -3.09929687 1.75289063 -2.15234375 1.20703125 C-1.44207031 0.80871094 -0.73179687 0.41039062 0 0 Z " fill="#262D3A" transform="translate(320,309)"/>
<path d="M0 0 C0.99 0 1.98 0 3 0 C3.38218767 1.65614657 3.71395102 3.32457024 4 5 C3.67 5.33 3.34 5.66 3 6 C2.63239269 8.32817964 2.29758419 10.6618385 2 13 C1.67 13 1.34 13 1 13 C0.63901937 11.02206479 0.28638652 9.04260427 -0.0625 7.0625 C-0.25972656 5.96035156 -0.45695313 4.85820312 -0.66015625 3.72265625 C-0.77230469 2.82417969 -0.88445312 1.92570313 -1 1 C-0.67 0.67 -0.34 0.34 0 0 Z " fill="#292F3A" transform="translate(130,244)"/>
<path d="M0 0 C-0.598125 0.226875 -1.19625 0.45375 -1.8125 0.6875 C-4.56351888 2.33811133 -5.52484637 4.1972081 -7 7 C-7.66 6.67 -8.32 6.34 -9 6 C-9 5.67 -9 5.34 -9 5 C-9.66 5 -10.32 5 -11 5 C-10 2 -10 2 -8.22265625 1.015625 C-7.15337891 0.63664062 -7.15337891 0.63664062 -6.0625 0.25 C-5.35222656 -0.01296875 -4.64195312 -0.2759375 -3.91015625 -0.546875 C-2 -1 -2 -1 0 0 Z M-11 7 C-9 8 -9 8 -9 8 Z " fill="#E56C6D" transform="translate(155,110)"/>
<path d="M0 0 C2.475 0.99 2.475 0.99 5 2 C0.78777526 6.21222474 -6.25721144 7.26374506 -12 8 C-11.67 7.34 -11.34 6.68 -11 6 C-9.906875 5.71125 -8.81375 5.4225 -7.6875 5.125 C-3.91945678 3.97542749 -2.47322318 2.96786781 0 0 Z " fill="#272E3A" transform="translate(308,346)"/>
<path d="M0 0 C0 4.59784143 -2.69252628 7.43103153 -5.5625 10.875 C-7 12 -7 12 -10 12 C-8.52278578 8.54798361 -6.56205999 6.35038064 -3.875 3.75 C-3.15054688 3.04359375 -2.42609375 2.3371875 -1.6796875 1.609375 C-1.12539062 1.07828125 -0.57109375 0.5471875 0 0 Z " fill="#DC6F72" transform="translate(111,136)"/>
<path d="M0 0 C0.79921875 0.00902344 1.5984375 0.01804687 2.421875 0.02734375 C3.02515625 0.03894531 3.6284375 0.05054688 4.25 0.0625 C4.58 1.0525 4.91 2.0425 5.25 3.0625 C3.66705218 3.11687607 2.08355744 3.15546271 0.5 3.1875 C-0.38171875 3.21070313 -1.2634375 3.23390625 -2.171875 3.2578125 C-4.8635858 3.05389502 -6.44904974 2.42801721 -8.75 1.0625 C-5.75519083 0.1901588 -3.11424089 -0.04579766 0 0 Z " fill="#E86C6D" transform="translate(251.75,298.9375)"/>
<path d="M0 0 C4.25209792 4.12324647 8.13635705 8.51282966 12 13 C11.67 13.66 11.34 14.32 11 15 C10.45730469 14.37351563 9.91460937 13.74703125 9.35546875 13.1015625 C8.64003906 12.28429687 7.92460937 11.46703125 7.1875 10.625 C6.47980469 9.81289062 5.77210938 9.00078125 5.04296875 8.1640625 C3.00018747 5.83816812 3.00018747 5.83816812 0 4 C0 2.68 0 1.36 0 0 Z " fill="#D86A6B" transform="translate(294,139)"/>
<path d="M0 0 C1.625 1.375 1.625 1.375 3 3 C3 3.66 3 4.32 3 5 C4.32 5.66 5.64 6.32 7 7 C2.00088076 6.52389341 -0.97832683 4.96837781 -5 2 C-2 0 -2 0 0 0 Z " fill="#DE6C6F" transform="translate(226,290)"/>
<path d="M0 0 C0.66 1.32 1.32 2.64 2 4 C1.01 4 0.02 4 -1 4 C-1.33 5.32 -1.66 6.64 -2 8 C-3.5 6.6875 -3.5 6.6875 -5 5 C-5 4.01 -5 3.02 -5 2 C-2 0 -2 0 0 0 Z " fill="#28303E" transform="translate(150,290)"/>
<path d="M0 0 C0.66 0.33 1.32 0.66 2 1 C1.01 1.33 0.02 1.66 -1 2 C-1 2.66 -1 3.32 -1 4 C-1.66 4 -2.32 4 -3 4 C-3 4.66 -3 5.32 -3 6 C-3.99 6.66 -4.98 7.32 -6 8 C-6.33 8.99 -6.66 9.98 -7 11 C-7.66 11 -8.32 11 -9 11 C-7.75892597 6.03570389 -6.23893588 3.86128172 -2 1 C-1.34 0.67 -0.68 0.34 0 0 Z " fill="#282F3B" transform="translate(311,87)"/>
<path d="M0 0 C3.85486815 3.85486815 6.71498595 8.04913622 9 13 C7.68 12.34 6.36 11.68 5 11 C5 10.34 5 9.68 5 9 C4.01 9 3.02 9 2 9 C1.34 6.03 0.68 3.06 0 0 Z " fill="#D46969" transform="translate(126,315)"/>
<path d="M0 0 C0.33 0 0.66 0 1 0 C1.13794954 7.06608191 0.74805717 13.97360585 0 21 C-0.99 20.67 -1.98 20.34 -3 20 C-2.86722656 19.31035156 -2.73445313 18.62070313 -2.59765625 17.91015625 C-1.47696987 11.94679588 -0.59395227 6.03851471 0 0 Z " fill="#171C23" transform="translate(388,225)"/>
<path d="M0 0 C-1.65167557 3.5786304 -3.78286492 6.74820188 -6 10 C-6.98726527 7.33438378 -7.0275526 6.09873015 -6.25 3.3125 C-4.65747494 0.36632864 -3.30019016 0 0 0 Z " fill="#D66E6E" transform="translate(321,267)"/>
<path d="M0 0 C-8.34334182 4.26157761 -8.34334182 4.26157761 -12.375 3.625 C-12.91125 3.41875 -13.4475 3.2125 -14 3 C-9.43672206 -0.53286034 -5.50366792 -0.32374517 0 0 Z " fill="#232934" transform="translate(197,187)"/>
<path d="M0 0 C1.64936913 0.78427352 3.29441127 1.57765259 4.9375 2.375 C5.85402344 2.81585938 6.77054687 3.25671875 7.71484375 3.7109375 C10 5 10 5 11 7 C8.69 6.67 6.38 6.34 4 6 C4 5.01 4 4.02 4 3 C2.68 2.67 1.36 2.34 0 2 C0 1.34 0 0.68 0 0 Z " fill="#D96C70" transform="translate(263,116)"/>
<path d="M0 0 C1.9375 0.375 1.9375 0.375 4 1 C4.33 1.66 4.66 2.32 5 3 C4.34 3 3.68 3 3 3 C3 3.99 3 4.98 3 6 C-0.875 4.25 -0.875 4.25 -2 2 C-1.34 2 -0.68 2 0 2 C0 1.34 0 0.68 0 0 Z " fill="#E76B6C" transform="translate(130,362)"/>
<path d="M0 0 C0.66 0.33 1.32 0.66 2 1 C2 4.29223784 1.49481868 6.08510357 0 9 C-2.078125 10.15234375 -2.078125 10.15234375 -4 11 C-3.52269162 9.5410574 -3.04308958 8.08286504 -2.5625 6.625 C-2.29566406 5.81289063 -2.02882813 5.00078125 -1.75390625 4.1640625 C-1 2 -1 2 0 0 Z " fill="#272E39" transform="translate(354,260)"/>
<path d="M0 0 C0.33 0.99 0.66 1.98 1 3 C0.00390625 4.82421875 0.00390625 4.82421875 -1.4375 6.6875 C-1.91058594 7.31011719 -2.38367188 7.93273437 -2.87109375 8.57421875 C-3.24363281 9.04472656 -3.61617187 9.51523437 -4 10 C-4.66 9.67 -5.32 9.34 -6 9 C-5.525625 8.21625 -5.05125 7.4325 -4.5625 6.625 C-3.66101977 5.11051322 -2.78820515 3.5764103 -2 2 C-1.34 1.34 -0.68 0.68 0 0 Z " fill="#D86D6E" transform="translate(158,362)"/>
<path d="M0 0 C1.32 0 2.64 0 4 0 C4.66 1.65 5.32 3.3 6 5 C3.36 4.34 0.72 3.68 -2 3 C-1.34 2.01 -0.68 1.02 0 0 Z " fill="#2A303C" transform="translate(215,187)"/>
<path d="M0 0 C2.475 0.99 2.475 0.99 5 2 C4.67 2.99 4.34 3.98 4 5 C4.66 5 5.32 5 6 5 C5.67 6.32 5.34 7.64 5 9 C4.16094435 7.87926138 3.32892169 6.75325453 2.5 5.625 C2.0359375 4.99851563 1.571875 4.37203125 1.09375 3.7265625 C0 2 0 2 0 0 Z " fill="#2B303B" transform="translate(234,202)"/>
<path d="M0 0 C0.66 0 1.32 0 2 0 C2 0.66 2 1.32 2 2 C2.5775 2.28875 3.155 2.5775 3.75 2.875 C5.83333333 3.91666667 7.91666667 4.95833333 10 6 C9.67 6.99 9.34 7.98 9 9 C7.68103535 8.07161713 6.37001311 7.13194268 5.0625 6.1875 C4.33160156 5.66542969 3.60070312 5.14335937 2.84765625 4.60546875 C1 3 1 3 0 0 Z " fill="#D86F71" transform="translate(259,147)"/>
<path d="M0 0 C0 0.66 0 1.32 0 2 C0.99 2.33 1.98 2.66 3 3 C-2.41538462 4.23076923 -2.41538462 4.23076923 -5.375 3.0625 C-5.91125 2.711875 -6.4475 2.36125 -7 2 C-2.25 0 -2.25 0 0 0 Z " fill="#E86B6D" transform="translate(149,370)"/>
<path d="M0 0 C2.76223278 2.76223278 2.57856291 5.20706617 3 9 C2.01 8.67 1.02 8.34 0 8 C-1.1875 5.4375 -1.1875 5.4375 -2 3 C-1.34 3 -0.68 3 0 3 C0 2.01 0 1.02 0 0 Z " fill="#DF615E" transform="translate(101,250)"/>
<path d="M0 0 C2.12508244 3.18762365 2.5020163 5.26512223 3 9 C1.68 8.67 0.36 8.34 -1 8 C-0.79375 7.38125 -0.5875 6.7625 -0.375 6.125 C-0.25125 5.42375 -0.1275 4.7225 0 4 C-0.66 3.34 -1.32 2.68 -2 2 C-1.34 2 -0.68 2 0 2 C0 1.34 0 0.68 0 0 Z " fill="#292E3A" transform="translate(379,172)"/>
<path d="M0 0 C4.26086957 6.39130435 4.26086957 6.39130435 3.625 10.3125 C3.41875 10.869375 3.2125 11.42625 3 12 C0.58314288 7.77050005 -0.34833144 4.87664009 0 0 Z " fill="#D46C6F" transform="translate(107,274)"/>
<path d="M0 0 C3.63 1.32 7.26 2.64 11 4 C6.74938644 5.41687119 4.28148375 4.19320039 0 3 C0 2.01 0 1.02 0 0 Z " fill="#D96F72" transform="translate(235,266)"/>
<path d="M0 0 C0.33 0 0.66 0 1 0 C1.25 5.625 1.25 5.625 -1 9 C-1.99 8.67 -2.98 8.34 -4 8 C-2.68 5.36 -1.36 2.72 0 0 Z " fill="#DE6B6E" transform="translate(298,245)"/>
<path d="M0 0 C0.33 1.32 0.66 2.64 1 4 C-1.64 4.66 -4.28 5.32 -7 6 C-4.74259377 3.66475218 -2.7194239 1.81294927 0 0 Z " fill="#E26A6C" transform="translate(285,263)"/>
<path d="M0 0 C2.475 0.495 2.475 0.495 5 1 C5.66 3.31 6.32 5.62 7 8 C4.35247996 5.42215154 2.05567935 3.08351902 0 0 Z " fill="#DB6F71" transform="translate(274,161)"/>
<path d="M0 0 C0.9075 0.53625 1.815 1.0725 2.75 1.625 C-1.06489674 3.09226798 -3.54011622 2.05836419 -7.25 0.625 C-4.22502149 -1.58556122 -3.57040661 -1.51055664 0 0 Z " fill="#DD6E6F" transform="translate(240.25,297.375)"/>
<path d="M0 0 C-3.3125 1.625 -3.3125 1.625 -7 3 C-7.99 2.34 -8.98 1.68 -10 1 C-3.71428571 -1.42857143 -3.71428571 -1.42857143 0 0 Z " fill="#D66F6F" transform="translate(277,270)"/>
<path d="M0 0 C0 3.61029169 -0.96092582 6.55806676 -2 10 C-2.99 9.67 -3.98 9.34 -5 9 C-4.3566152 7.686298 -3.71021785 6.37407102 -3.0625 5.0625 C-2.70285156 4.33160156 -2.34320313 3.60070312 -1.97265625 2.84765625 C-1 1 -1 1 0 0 Z " fill="#E17174" transform="translate(95,154)"/>
<path d="M0 0 C3.08089673 2.77280706 4.68775452 5.06326356 6 9 C5.01 8.34 4.02 7.68 3 7 C3 6.34 3 5.68 3 5 C2.01 5 1.02 5 0 5 C0 3.35 0 1.7 0 0 Z " fill="#2A303A" transform="translate(352,119)"/>
</svg>
